<svg width="300" height="225" viewBox="0 0 300 225" fill="none" xmlns="http://www.w3.org/2000/svg">
<g clip-path="url(#clip0)">
<path d="M129.5 124L122 113L136.5 113L129.5 124Z" fill="white"/>
<path d="M171.5 124L164 113L178.5 113L171.5 124Z" fill="white"/>
<path d="M150.5 160.75L191.5 222H108.596L150.5 160.75Z" fill="white"/>
<path d="M182 113H223.5L297.5 222H237L173 127L182 113Z" fill="white"/>
<path d="M118.5 113H76L2.5 222H62.5L127.5 125.5L118.5 113Z" fill="white"/>
<path d="M141 113H160L169 126.5L150.5 154L131.5 126.5L141 113Z" fill="white"/>
<path d="M152.5 158L171 131L232.5 222H195L152.5 158Z" fill="white"/>
<path d="M148.5 158L129.5 128.5L67.5 222H105L148.5 158Z" fill="white"/>
<path d="M97 82.5L115.5 110L78.5 110L97 82.5Z" fill="white"/>
<path d="M202.5 82.5L221 110L185 110L202.5 82.5Z" fill="white"/>
<path d="M181 110H162.5L177 45L200.5 80L181 110Z" fill="white"/>
<path d="M119.5 110H137.5L123 45L99.5 80L119.5 110Z" fill="white"/>
<path d="M159.5 110H140.5L126 40.5L150 5L174 40.5L159.5 110Z" fill="white"/>
<path d="M278.5 100L285.5 110L272 110L278.5 100Z" fill="white"/>
<path d="M300 63.5L257 -0.5L300 0V63.5Z" fill="white"/>
<path d="M268.5 110H226L151 -1H209.5L277 97L268.5 110Z" fill="white"/>
<path d="M300 110H289.5L281 97.5L300.5 68.5L300 110Z" fill="white"/>
<path d="M297.5 66L279 93L215.5 -0.5H252.5L297.5 66Z" fill="white"/>
<path d="M247.5 141.5L228 113L266 113L247.5 141.5Z" fill="white"/>
<path d="M270 113H287.5L273 179L249.5 144L270 113Z" fill="white"/>
<path d="M290.5 113H300V173V219L276 183.5L290.5 113Z" fill="white"/>
<path d="M21 99L28.5 110L14 110L21 99Z" fill="white"/>
<path d="M0 63.0001V6.10352e-05H42.5L0 63.0001Z" fill="white"/>
<path d="M32 110H74.5L148.5 -0.5H88.5L23 97.5L32 110Z" fill="white"/>
<path d="M10.5 110H0V92.0001V67.0001L19.5 97L10.5 110Z" fill="white"/>
<path d="M2 65L21 94.5L74.5 14L83 0H46L2 65Z" fill="white"/>
<path d="M53.5 140.5L34.5 113L72 113L53.5 140.5Z" fill="white"/>
<path d="M31 113H13L28 178.5L52 143.5L31 113Z" fill="white"/>
<path d="M-0.5 113H10.5L25 182.5L-0.5 220.5V113Z" fill="white"/>
</g>
<defs>
<clipPath id="clip0">
<rect width="300" height="225" fill="white"/>
</clipPath>
</defs>
</svg>
