<svg width="48" height="60" viewBox="0 0 48 60" fill="none" xmlns="http://www.w3.org/2000/svg">
<g clip-path="url(#clip0)">
<path d="M0 0H31L46.5 15.5V60H0V0Z" fill="white"/>
<path d="M31.914 0H-0.5V60H46.5V14.586L31.914 0ZM32.5 3.414L43.086 14H32.5V3.414ZM1.5 58V2H30.5V16H44.5V58H1.5Z" fill="#3C6CB5"/>
<path d="M36.5 22H11.5C10.948 22 10.5 22.447 10.5 23C10.5 23.553 10.948 24 11.5 24H36.5C37.052 24 37.5 23.553 37.5 23C37.5 22.447 37.052 22 36.5 22Z" fill="#3C6CB5"/>
<path d="M11.5 16H21.5C22.052 16 22.5 15.553 22.5 15C22.5 14.447 22.052 14 21.5 14H11.5C10.948 14 10.5 14.447 10.5 15C10.5 15.553 10.948 16 11.5 16Z" fill="#3C6CB5"/>
<path d="M36.5 30H11.5C10.948 30 10.5 30.447 10.5 31C10.5 31.553 10.948 32 11.5 32H36.5C37.052 32 37.5 31.553 37.5 31C37.5 30.447 37.052 30 36.5 30Z" fill="#3C6CB5"/>
<path d="M36.5 38H11.5C10.948 38 10.5 38.447 10.5 39C10.5 39.553 10.948 40 11.5 40H36.5C37.052 40 37.5 39.553 37.5 39C37.5 38.447 37.052 38 36.5 38Z" fill="#3C6CB5"/>
<path d="M36.5 46H11.5C10.948 46 10.5 46.447 10.5 47C10.5 47.553 10.948 48 11.5 48H36.5C37.052 48 37.5 47.553 37.5 47C37.5 46.447 37.052 46 36.5 46Z" fill="#3C6CB5"/>
</g>
<defs>
<clipPath id="clip0">
<rect width="48" height="60" fill="white"/>
</clipPath>
</defs>
</svg>
